<svg id="Outline" width="512" height="512" version="1.1" viewBox="0 0 24 24" xmlns="http://www.w3.org/2000/svg">
 <path d="m12 1.12c-0.552 0-1 0.448-1 1v3h-6c-2.76 0.00331-5 2.24-5 5v5.88c0.00331 2.76 2.24 5 5 5h14c2.76-0.0033 5-2.24 5-5v-5.88c-0.0033-2.76-2.24-5-5-5h-6v-3c0-0.552-0.448-1-1-1zm-7 6h14c1.66 0 3 1.34 3 3h-20c0-1.66 1.34-3 3-3zm-3 5h2v2.94c0 0.554 0.446 1 1 1 0.554 0 1-0.446 1-1v-2.94h1v2.94c0 0.554 0.446 1 1 1s1-0.446 1-1v-2.94h3v2.94c0 0.554 0.446 1 1 1s1-0.446 1-1v-2.94h1v2.94c0 0.554 0.446 1 1 1s1-0.446 1-1v-2.94h1v2.94c0 0.554 0.446 1 1 1s1-0.446 1-1v-2.94h2v3.88c0 1.66-1.34 3-3 3h-14c-1.66 0-3-1.34-3-3z"/>
</svg>
