<svg width="512" height="512" version="1.1" viewBox="0 0 24 24" xmlns="http://www.w3.org/2000/svg">
 <path d="m12 0c-6.6156 0-12 5.3844-12 12 0 6.6156 5.3844 12 12 12 6.6156 0 12-5.3844 12-12 0-6.6156-5.3844-12-12-12zm-2 2.1992v1.8008c0 0.554 0.446 1 1 1h2c0.554 0 1-0.446 1-1v-1.8008c4.5722 0.9229 8 4.9511 8 9.8008 0 5.5347-4.4653 10-10 10-5.5347 0-10-4.4653-10-10 0-4.8497 3.4278-8.8779 8-9.8008zm-4.5 8.3008a1.5 1.5 0 0 0-1.5 1.5 1.5 1.5 0 0 0 1.5 1.5 1.5 1.5 0 0 0 1.5-1.5 1.5 1.5 0 0 0-1.5-1.5zm13 0a1.5 1.5 0 0 0-1.5 1.5 1.5 1.5 0 0 0 1.5 1.5 1.5 1.5 0 0 0 1.5-1.5 1.5 1.5 0 0 0-1.5-1.5zm-11.203 4.5996a1.5 1.5 0 0 0-0.95312 0.43555 1.5 1.5 0 0 0 0 2.1211 1.5 1.5 0 0 0 2.1211 0 1.5 1.5 0 0 0 0-2.1211 1.5 1.5 0 0 0-1.168-0.43555zm9.1914 0a1.5 1.5 0 0 0-0.95312 0.43555 1.5 1.5 0 0 0 0 2.1211 1.5 1.5 0 0 0 2.1211 0 1.5 1.5 0 0 0 0-2.1211 1.5 1.5 0 0 0-1.168-0.43555zm-4.4883 1.9004a1.5 1.5 0 0 0-1.5 1.5 1.5 1.5 0 0 0 1.5 1.5 1.5 1.5 0 0 0 1.5-1.5 1.5 1.5 0 0 0-1.5-1.5z" fill="#000" />
 <path d="m10 2.2031a10 10 0 0 0-0.22461 0.046875 10 10 0 0 0-0.3125 0.076172 10 10 0 0 0-7.2793 7.7617 10 10 0 0 0-0.054688 0.31641 10 10 0 0 0-0.046875 0.31641 10 10 0 0 0-0.035156 0.31836 10 10 0 0 0-0.021484 0.27539 10 10 0 0 0-0.00586 0.08203 10 10 0 0 0-0.011719 0.24414c-0.0041758 0.11916-0.0078118 0.23918-0.0078118 0.35938 0 0.14741 0.00545 0.29363 0.011719 0.43945a10 10 0 0 0 0.00781 0.14648c0.00516 0.08981 0.012029 0.17843 0.019531 0.26758a10 10 0 0 0 0.00781 0.10742 10 10 0 0 0 0.025391 0.22852c0.00676 0.05734 0.013759 0.11484 0.021484 0.17188a10 10 0 0 0 0.076172 0.4668 10 10 0 0 0 0.015625 0.0957 10 10 0 0 0 0.060547 0.28516 10 10 0 0 0 0.00781 0.03516 10 10 0 0 0 7.502 7.502 10 10 0 0 0 0.035156 0.0078 10 10 0 0 0 0.28516 0.06055 10 10 0 0 0 0.0957 0.01563 10 10 0 0 0 0.4668 0.07617c0.05703 0.0077 0.11454 0.01472 0.17188 0.02148a10 10 0 0 0 0.22852 0.02539c0.03568 0.0034 0.07163 0.0048 0.10742 0.0078 0.08915 0.0075 0.17777 0.01437 0.26758 0.01953a10 10 0 0 0 0.14648 0.0078c0.14584 0.006308 0.29205 0.011756 0.43946 0.011756s0.29363-0.0054 0.43945-0.01172a10 10 0 0 0 0.14648-0.0078c0.08981-0.0052 0.17843-0.01203 0.26758-0.01953a10 10 0 0 0 0.10742-0.0078 10 10 0 0 0 0.22852-0.02539c0.05734-0.0068 0.11484-0.01376 0.17188-0.02148a10 10 0 0 0 0.4668-0.07617c0.03169-0.0058 0.06411-0.0095 0.0957-0.01563a10 10 0 0 0 0.28516-0.06055c0.01172-0.0026 0.02345-0.0051 0.03516-0.0078a10 10 0 0 0 7.502-7.502c0.0027-0.01171 0.0052-0.02343 0.0078-0.03516a10 10 0 0 0 0.06055-0.28516c0.0061-0.03159 0.0098-0.06401 0.01563-0.0957a10 10 0 0 0 0.07617-0.4668c0.0077-0.05703 0.01472-0.11454 0.02148-0.17188a10 10 0 0 0 0.02539-0.22852 10 10 0 0 0 0.0078-0.10742c0.0075-0.08915 0.01437-0.17777 0.01953-0.26758a10 10 0 0 0 0.0078-0.14648c0.006308-0.14586 0.011756-0.29208 0.011756-0.43949 0-0.13522-0.0025-0.27041-0.0078-0.4043a10 10 0 0 0-2e-3 -0.0293 10 10 0 0 0-0.0059-0.10742 10 10 0 0 0 0-0.0059c-0.0038-0.07081-0.0084-0.14053-0.01367-0.21094a10 10 0 0 0-0.0098-0.14063c-0.0022-0.02488-0.0054-0.04939-0.0078-0.07422a10 10 0 0 0-0.02344-0.2168c-0.0022-0.01889-0.0055-0.03778-0.0078-0.05664a10 10 0 0 0-0.0059-0.05078 10 10 0 0 0-0.03125-0.21484 10 10 0 0 0-0.0059-0.04101c-0.0033-0.02146-0.0063-0.04304-0.0098-0.06445a10 10 0 0 0-0.0039-0.02344 10 10 0 0 0-0.054493-0.29684 10 10 0 0 0-0.021485-0.10547 10 10 0 0 0-7.5332-7.6992 10 10 0 0 0-0.25586-0.054688v1.7969c0 0.554-0.446 1-1 1h-2c-0.554 0-1-0.446-1-1zm-4.5488 8.2969a1.5 1.5 0 0 1 0.048828 0 1.5 1.5 0 0 1 1.5 1.5 1.5 1.5 0 0 1-1.5 1.5 1.5 1.5 0 0 1-1.5-1.5 1.5 1.5 0 0 1 1.4512-1.5zm13 0a1.5 1.5 0 0 1 0.048828 0 1.5 1.5 0 0 1 1.5 1.5 1.5 1.5 0 0 1-1.5 1.5 1.5 1.5 0 0 1-1.5-1.5 1.5 1.5 0 0 1 1.4512-1.5zm-11.072 4.5957a1.5 1.5 0 0 1 1.0859 0.43945 1.5 1.5 0 0 1 0 2.1211 1.5 1.5 0 0 1-2.1211 0 1.5 1.5 0 0 1 0-2.1211 1.5 1.5 0 0 1 1.0352-0.43945zm9.1934 0a1.5 1.5 0 0 1 1.084 0.43945 1.5 1.5 0 0 1 0 2.1211 1.5 1.5 0 0 1-2.1211 0 1.5 1.5 0 0 1 0-2.1211 1.5 1.5 0 0 1 1.0371-0.43945zm-4.6211 1.9043a1.5 1.5 0 0 1 0.048828 0 1.5 1.5 0 0 1 1.5 1.5 1.5 1.5 0 0 1-1.5 1.5 1.5 1.5 0 0 1-1.5-1.5 1.5 1.5 0 0 1 1.4512-1.5z" fill="#fff"/>
</svg>
