<?xml version="1.0" encoding="UTF-8" standalone="no"?>
<!-- Created with Inkscape (http://www.inkscape.org/) -->

<svg
   width="24"
   height="24"
   viewBox="0 0 24 24"
   version="1.1"
   id="svg5"
   sodipodi:docname="piano.svg"
   inkscape:version="1.1.1 (3bf5ae0d25, 2021-09-20)"
   xmlns:inkscape="http://www.inkscape.org/namespaces/inkscape"
   xmlns:sodipodi="http://sodipodi.sourceforge.net/DTD/sodipodi-0.dtd"
   xmlns="http://www.w3.org/2000/svg"
   xmlns:svg="http://www.w3.org/2000/svg">
  <sodipodi:namedview
     id="namedview7"
     pagecolor="#ffffff"
     bordercolor="#666666"
     borderopacity="1.0"
     inkscape:pageshadow="2"
     inkscape:pageopacity="0.0"
     inkscape:pagecheckerboard="0"
     inkscape:document-units="px"
     showgrid="true"
     units="px"
     width="24px"
     inkscape:zoom="32"
     inkscape:cx="11.703125"
     inkscape:cy="18.421875"
     inkscape:window-width="1826"
     inkscape:window-height="1051"
     inkscape:window-x="85"
     inkscape:window-y="2151"
     inkscape:window-maximized="1"
     inkscape:current-layer="layer1"
     showguides="false">
    <inkscape:grid
       type="xygrid"
       id="grid9" />
  </sodipodi:namedview>
  <defs
     id="defs2" />
  <g
     inkscape:label="Calque 1"
     inkscape:groupmode="layer"
     id="layer1">
    <path
       id="rect40"
       style="color:#000000;fill:#000000;stroke-linecap:round;-inkscape-stroke:none"
       d="M 5,0 C 2.2473,0 0,2.2473 0,5 v 14 c 0,2.7527 2.2473,5 5,5 h 14 c 2.7527,0 5,-2.2473 5,-5 V 5 C 24,2.2473 21.7527,0 19,0 Z m 0,2 h 14 c 1.679296,0 3,1.3207044 3,3 V 6 H 2 V 5 C 2,3.3207044 3.3207044,2 5,2 Z M 2,8 h 2 v 7 c 0,0.553999 0.4460006,1 1,1 0.5539994,0 1,-0.446001 1,-1 V 8 h 1 v 7 c 0,0.553999 0.4460006,1 1,1 0.5539994,0 1,-0.446001 1,-1 V 8 h 3 v 7 c 0,0.553999 0.446001,1 1,1 0.553999,0 0.960529,-0.447409 1,-1 V 8 h 1 v 7 c 0,0.553999 0.446001,1 1,1 0.553999,0 0.960529,-0.447409 1,-1 V 8 h 1 v 7 c 0,0.553999 0.446001,1 1,1 0.553999,0 1,-0.446001 1,-1 V 8 h 2 v 11 c 0,1.679296 -1.320704,3 -3,3 H 5 C 3.3207044,22 2,20.679296 2,19 Z"
       sodipodi:nodetypes="ssssssssssssccssccsssccsssccsssccsssccsssccssssc" />
    <g
       id="g1663"
       transform="translate(0.5)">
      <g
         id="rect1422" />
      <g
         id="rect1422-9" />
      <g
         id="rect1422-6" />
      <g
         id="rect1422-04" />
      <g
         id="rect1422-5" />
    </g>
  </g>
</svg>
