<svg version="1.1" xmlns="http://www.w3.org/2000/svg" xmlns:xlink="http://www.w3.org/1999/xlink"
  viewBox="0 0 24 24" width="512" height="512">
  <path d="m1.436 24h4.764a1 1 0 0 0 0.708-1.707l-1.893-1.893 3.692-3.692a1.0002 1.0002 0 0 0-1.414-1.415l-3.693 3.692-1.893-1.894a1 1 0 0 0-1.707 0.709v4.764a1.436 1.436 0 0 0 1.436 1.436z"/>
  <path d="m22.564 2.9771e-4h-4.764a1 1 0 0 0-0.708 1.707l1.893 1.893-3.692 3.693a1 1 0 1 0 1.414 1.414l3.693-3.692 1.894 1.894a1 1 0 0 0 1.706-0.709v-4.764a1.436 1.436 0 0 0-1.436-1.436z"/>
</svg>
