<svg version="1.1" xmlns="http://www.w3.org/2000/svg" xmlns:xlink="http://www.w3.org/1999/xlink"
  viewBox="0 0 24 24" width="512" height="512">
  <path d="m12 0c-6.6156 0-12 5.3844-12 12 0 6.6156 5.3844 12 12 12 6.6156 0 12-5.3844 12-12 0-6.6156-5.3844-12-12-12zm-2 2.1992v1.8008c0 0.554 0.446 1 1 1h2c0.554 0 1-0.446 1-1v-1.8008c4.5722 0.9229 8 4.9511 8 9.8008 0 5.5347-4.4653 10-10 10-5.5347 0-10-4.4653-10-10 0-4.8497 3.4278-8.8779 8-9.8008zm-4.5 8.3008a1.5 1.5 0 0 0-1.5 1.5 1.5 1.5 0 0 0 1.5 1.5 1.5 1.5 0 0 0 1.5-1.5 1.5 1.5 0 0 0-1.5-1.5zm13 0a1.5 1.5 0 0 0-1.5 1.5 1.5 1.5 0 0 0 1.5 1.5 1.5 1.5 0 0 0 1.5-1.5 1.5 1.5 0 0 0-1.5-1.5zm-11.203 4.5996a1.5 1.5 0 0 0-0.95312 0.43555 1.5 1.5 0 0 0 0 2.1211 1.5 1.5 0 0 0 2.1211 0 1.5 1.5 0 0 0 0-2.1211 1.5 1.5 0 0 0-1.168-0.43555zm9.1914 0a1.5 1.5 0 0 0-0.95312 0.43555 1.5 1.5 0 0 0 0 2.1211 1.5 1.5 0 0 0 2.1211 0 1.5 1.5 0 0 0 0-2.1211 1.5 1.5 0 0 0-1.168-0.43555zm-4.4883 1.9004a1.5 1.5 0 0 0-1.5 1.5 1.5 1.5 0 0 0 1.5 1.5 1.5 1.5 0 0 0 1.5-1.5 1.5 1.5 0 0 0-1.5-1.5z"/>
</svg>
