<svg version="1.1" xmlns="http://www.w3.org/2000/svg" xmlns:xlink="http://www.w3.org/1999/xlink"
  viewBox="0 0 24 24" width="512" height="512">
  <path d="M12,4a8.009,8.009,0,0,0-8,8c.376,10.588,15.626,10.585,16,0A8.009,8.009,0,0,0,12,4Zm0,14C4.071,17.748,4.072,6.251,12,6,19.929,6.252,19.928,17.749,12,18Zm1-9v3a1,1,0,0,1-2,0V9A1,1,0,0,1,13,9Zm11,3a12.026,12.026,0,0,1-2.743,7.637,1,1,0,0,1-1.543-1.274,10.052,10.052,0,0,0,0-12.726,1,1,0,0,1,1.543-1.274A12.026,12.026,0,0,1,24,12ZM4.286,18.363a1,1,0,0,1-1.542,1.274,12.065,12.065,0,0,1,0-15.274A1,1,0,0,1,4.286,5.637,10.052,10.052,0,0,0,4.286,18.363ZM13,15a1,1,0,0,1-2,0A1,1,0,0,1,13,15Z"/>
</svg>
