<svg version="1.1" xmlns="http://www.w3.org/2000/svg" xmlns:xlink="http://www.w3.org/1999/xlink"
  viewBox="0 0 24 24" width="512" height="512">
  <path d="m5 0c-2.75 0-5 2.25-5 5v14c0 2.75 2.25 5 5 5h14c2.75 0 5-2.25 5-5v-14c0-2.75-2.25-5-5-5zm0 2h14c1.68 0 3 1.32 3 3v1h-20v-1c0-1.68 1.32-3 3-3zm-3 6h2v7c0 0.554 0.446 1 1 1s1-0.446 1-1v-7h1v7c0 0.554 0.446 1 1 1s1-0.446 1-1v-7h3v7c0 0.554 0.446 1 1 1s0.961-0.447 1-1v-7h1v7c0 0.554 0.446 1 1 1s0.961-0.447 1-1v-7h1v7c0 0.554 0.446 1 1 1s1-0.446 1-1v-7h2v11c0 1.68-1.32 3-3 3h-14c-1.68 0-3-1.32-3-3z" />
</svg>
